<svg height="488pt" viewBox="0 -32 488.01511 488" width="488pt" xmlns="http://www.w3.org/2000/svg"><path d="m220.378906 112.328125h52.789063c22.640625 0 40.992187 18.351563 41 40.988281v83.949219h132.710937l21.046875 20.300781c8.011719 7.730469 12.539063 18.378906 12.542969 29.511719v77.078125h-56.269531l-.363281.011719c-.175782-28.171875-23.0625-50.917969-51.234376-50.917969-28.171874 0-51.058593 22.746094-51.234374 50.917969l-.558594-.011719h-167.109375c-.175781-28.167969-23.0625-50.910156-51.230469-50.910156-28.171875 0-51.054688 22.742187-51.230469 50.910156h-43.691406v-251.828125zm37.339844 66.988281-24.480469-27.738281c-13.351562 9.628906-29.582031 12.769531-42.929687 3.410156-5.179688 3.679688-11.378906 5.644531-17.730469 5.621094-8.621094 0-17.390625-3.410156-25.191406-9.03125l-24.480469 27.769531 5.421875 4.320313c13.339844 10.589843 10.460937 21.019531 3.828125 38.019531-6.929688 17.71875-15.558594 38.261719 6.710938 61.96875 9.378906 9.890625 19.058593 9.972656 27.46875 9.972656 7.761718.089844 17.613281 3.429688 24.230468 10.628906 6.257813-6.597656 14.890625-10.421874 23.980469-10.628906.789063 0 1.519531 0 2.332031-.011718.539063-.007813 1.046875-.019532 1.589844-.039063.269531 0 .527344-.011719.808594-.019531 7.140625-.3125 14.859375-1.871094 22.480468-9.910156 21.757813-23.160157 13.699219-44.789063 6.980469-61.972657-1.03125-2.648437-1.992187-5.148437-2.800781-7.507812-1.800781-5.199219-2.949219-9.742188-2.910156-13.910157.050781-6.058593 2.601562-11.308593 9.269531-16.601562zm0 0" fill="#00acea"/><path d="m444.539062 236.347656v.917969h-130.371093v-76.21875h58.140625c13.75 0 26.582031 6.890625 34.179687 18.351563zm0 0" fill="#00efd1"/><path d="m423.835938 364.167969v.289062c0 28.296875-22.9375 51.234375-51.234376 51.234375-28.296874 0-51.234374-22.9375-51.234374-51.234375v-.289062c.175781-28.171875 23.0625-50.917969 51.234374-50.917969 28.171876 0 51.058594 22.746094 51.234376 50.917969zm0 0" fill="#00efd1"/><path d="m233.238281 151.578125 24.480469 27.738281-5.421875 4.339844c-6.667969 5.292969-9.21875 10.542969-9.269531 16.601562-.039063 4.167969 1.109375 8.710938 2.910156 13.910157.808594 2.359375 1.769531 4.859375 2.800781 7.507812 6.71875 17.183594 14.777344 38.8125-6.980469 61.972657-7.621093 8.039062-15.339843 9.597656-22.480468 9.910156-.28125.007812-.539063.019531-.808594.019531-.542969.019531-1.050781.03125-1.589844.039063-.8125.011718-1.542968.011718-2.332031.011718-9.089844.207032-17.722656 4.03125-23.980469 10.628906-6.617187-7.199218-16.46875-10.539062-24.230468-10.628906-8.410157 0-18.089844-.082031-27.46875-9.972656-22.269532-23.707031-13.640626-44.25-6.710938-61.96875 6.632812-17 9.511719-27.429688-3.828125-38.019531l-5.421875-4.320313 24.480469-27.769531c7.800781 5.621094 16.570312 9.03125 25.191406 9.03125 6.351563.023437 12.550781-1.941406 17.730469-5.621094 13.347656 9.359375 29.578125 6.21875 42.929687-3.410156zm-27.472656 84.46875 15.460937-15.070313-21.359374-3.097656-9.558594-19.363281-9.550782 19.363281-21.359374 3.097656 15.460937 15.070313-3.652344 21.269531 19.101563-10.039062 19.109375 10.039062zm0 0" fill="#fedb41"/><path d="m221.226562 220.976562-15.460937 15.070313 3.652344 21.269531-19.109375-10.039062-19.101563 10.039062 3.652344-21.269531-15.460937-15.070313 21.359374-3.097656 9.550782-19.363281 9.558594 19.363281zm0 0" fill="#f4b844"/><path d="m220.378906 81.816406v30.511719h-60.742187v-30.511719c0-16.773437 13.597656-30.367187 30.371093-30.367187 16.773438 0 30.371094 13.59375 30.371094 30.367187zm0 0" fill="#f4b844"/><path d="m51.238281 364.15625c.175781-28.167969 23.058594-50.910156 51.230469-50.910156 28.167969 0 51.054688 22.742187 51.230469 50.910156v.300781c0 28.292969-22.9375 51.230469-51.230469 51.230469s-51.230469-22.9375-51.230469-51.230469zm0 0" fill="#00efd1"/><g fill="#083863"><path d="m452.429688 231.507812c-.757813-.726562-1.648438-1.300781-2.628907-1.683593l-36.644531-54.945313c-9.050781-13.738281-24.394531-22.015625-40.847656-22.03125h-50.148438c-.117187-27.011718-21.980468-48.878906-48.992187-49h-45.160157v-22.03125c.09375-10.160156-3.886718-19.933594-11.058593-27.136718-7.070313-7.207032-16.75-11.257813-26.847657-11.230469-10.144531.019531-19.863281 4.078125-27.011718 11.277343-7.144532 7.199219-11.132813 16.945313-11.082032 27.089844v22.03125h-144.460937c-4.417969 0-7.5390625 4.0625-7.5390625 8.480469v251.828125c-.09375 2.042969.6679685 4.027344 2.0976565 5.488281 1.429687 1.457031 3.402343 2.253907 5.441406 2.203125h36.207031c3.859375 29.480469 28.980469 51.527344 58.714844 51.527344 29.730469 0 54.851562-22.046875 58.710938-51.527344h152.699218c3.859375 29.484375 28.984375 51.53125 58.71875 51.53125s54.859375-22.046875 58.71875-51.53125h49.152344c2.039062.050782 4.011719-.746094 5.441406-2.203125 1.429688-1.460937 2.191406-3.445312 2.097656-5.488281v-77.078125c.054688-13.269531-5.269531-25.992187-14.757812-35.269531zm-52.597657-47.976562 30.355469 45.316406h-108.179688v-60h50.300782c11.0625-.058594 21.410156 5.460938 27.527344 14.683594zm-231.824219-101.714844c-.035156-5.910156 2.285157-11.59375 6.449219-15.789062 4.160157-4.199219 9.824219-6.566406 15.734375-6.578125 5.851563-.015625 11.460938 2.347656 15.539063 6.546875 4.132812 4.214844 6.394531 9.917968 6.277343 15.820312v22.03125h-44zm-22 282.640625c0 23.835938-19.664062 43.230469-43.5 43.230469-23.835937 0-43.5-19.394531-43.5-43.230469v-.277343c0-23.683594 19.804688-42.953126 43.5-42.953126 23.695313 0 43.5 19.28125 43.5 42.929688zm270 0c0 23.835938-19.664062 43.230469-43.5 43.230469-23.839843 0-43.5-19.394531-43.5-43.230469v-.265625c1-23.691406 19.800782-42.964844 43.5-42.964844 23.699219 0 43.5 19.285157 43.5 42.941407zm56-8.609375h-40.769531c-4.066406-28-28.863281-50.929687-58.640625-50.929687s-54.566406 22.929687-58.632812 50.929687h-152.867188c-4.058594-28-28.855468-50.929687-58.628906-50.929687-29.777344 0-54.570312 22.929687-58.632812 50.929687h-27.828126v-236h257.160157c18.199219 0 32.839843 15.277344 32.839843 33.46875v83.949219c0 4.421875 3.742188 7.582031 8.160157 7.582031h129.480469l18.492187 18.265625c6.375 6.339844 9.933594 14.976563 9.867187 23.964844zm0 0"/><path d="m239.234375 146.285156c-2.71875-3.085937-7.339844-3.605468-10.675781-1.199218-5.699219 4.105468-20.378906 12.65625-33.65625 3.347656-2.757813-1.933594-6.429688-1.933594-9.1875 0-3.832032 2.730468-8.429688 4.1875-13.136719 4.171875-6.59375 0-13.6875-2.601563-20.511719-7.523438-3.339844-2.40625-7.957031-1.886719-10.679687 1.199219l-24.480469 27.777344c-1.445312 1.640625-2.160156 3.808594-1.964844 5.988281.191406 2.183594 1.269532 4.191406 2.980469 5.558594l5.433594 4.328125c8.183593 6.5 8.382812 10.808594 1.351562 28.839844l-.378906.964843c-7.011719 17.90625-16.617187 42.429688 8.734375 69.425781 11.824219 12.464844 24.722656 12.484376 33.183594 12.460938 5.144531.0625 13.0625 2 18.433594 7.84375 1.535156 1.589844 3.675781 2.453125 5.886718 2.378906 2.207032.074219 4.347656-.789062 5.882813-2.375 4.757812-4.921875 11.257812-7.777344 18.101562-7.949218.824219 0 1.582031.054687 2.480469.042968.546875-.011718 1.0625 0 1.601562-.015625.304688 0 .613282 0 .992188-.011719 7.859375-.34375 18.136719-2.054687 27.960938-12.421874 25.5-27.144532 15.332031-53.148438 8.609374-70.339844-.933593-2.402344-1.910156-4.933594-2.699218-7.230469-1.738282-5.007813-2.5-8.46875-2.472656-11.222656.023437-2.851563.800781-6.078125 6.269531-10.421875l5.421875-4.339844c1.707031-1.367188 2.78125-3.375 2.96875-5.554688.191406-2.179687-.519532-4.34375-1.96875-5.984374zm-3.28125 131.863282c-5.484375 5.78125-10.769531 7.148437-16.988281 7.417968-.273438.011719-.527344.011719-.792969.019532-.492187.019531-.957031.027343-1.390625.035156-.777344.011718-1.476562.011718-2.316406.011718-8.589844.195313-16.917969 2.988282-23.890625 8.015626-7.105469-5.019532-15.542969-7.8125-24.238281-8.015626-7.820313 0-14.574219 0-21.636719-7.449218-18.402344-19.59375-12.121094-35.628906-5.472657-52.605469l.382813-.980469c5.765625-14.785156 12.289063-31.5-5.152344-46.246094l14.410157-16.347656c7.207031 4.195313 15.371093 6.46875 23.710937 6.609375 6.171875.03125 12.257813-1.4375 17.734375-4.285156 12.472656 6.453125 27.316406 5.609375 41.453125-2.324219l14.410156 16.332032c-7.429687 6.28125-11.078125 13.445312-11.148437 21.847656-.058594 5.976562 1.761718 12.011718 3.34375 16.585937.878906 2.554688 1.917968 5.261719 2.917968 7.824219 6.195313 15.84375 13.21875 33.796875-5.335937 53.554688zm0 0"/><path d="m222.375 213.0625-17.199219-2.5-7.699219-15.425781c-1.367187-2.6875-4.152343-4.355469-7.167968-4.289063-3.019532-.066406-5.808594 1.605469-7.175782 4.300782l-7.6875 15.5-17.199218 2.453124c-3.011719.429688-5.515625 2.53125-6.460938 5.425782-.941406 2.890625-.15625 6.070312 2.027344 8.1875l12.449219 12.132812-2.9375 17.121094c-.515625 3 .71875 6.035156 3.179687 7.824219 2.464844 1.789062 5.730469 2.023437 8.425782.609375l15.378906-8.085938 15.386718 8.085938c2.695313 1.414062 5.960938 1.179687 8.425782-.609375 2.464844-1.792969 3.695312-4.824219 3.179687-7.828125l-2.9375-17.121094 12.445313-12.136719c2.179687-2.128906 2.964844-5.304687 2.023437-8.203125-.941406-2.894531-3.445312-5.003906-6.460937-5.441406zm-22.191406 17.257812c-1.886719 1.835938-2.746094 4.484376-2.300782 7.082032l.910157 5.296875-4.761719-2.5c-2.332031-1.222657-5.113281-1.222657-7.445312 0l-4.75 2.5.90625-5.292969c.445312-2.59375-.414063-5.242188-2.296876-7.078125l-3.851562-3.753906 5.316406-.773438c2.605469-.378906 4.859375-2.015625 6.023438-4.378906l2.378906-4.820313 2.382812 4.824219c1.167969 2.363281 3.417969 3.996094 6.023438 4.375l5.316406.773438zm0 0"/><path d="m182.007812 8.007812v15.570313c0 4.417969 3.582032 8 8 8 4.417969 0 8-3.582031 8-8v-15.570313c0-4.417968-3.582031-7.9999995-8-7.9999995-4.417968 0-8 3.5820315-8 7.9999995zm0 0"/><path d="m243.976562 79.847656h14.960938c4.417969 0 8-3.582031 8-8 0-4.417968-3.582031-8-8-8h-14.960938c-4.417968 0-8 3.582032-8 8 0 4.417969 3.582032 8 8 8zm0 0"/><path d="m121.078125 63.847656c-4.417969 0-8 3.582032-8 8 0 4.417969 3.582031 8 8 8h14.960937c4.417969 0 8-3.582031 8-8 0-4.417968-3.582031-8-8-8zm0 0"/><path d="m151.578125 39.871094c3.199219-3.050782 3.320313-8.113282.269531-11.3125l-8.679687-9.109375c-3.046875-3.199219-8.109375-3.320313-11.308594-.273438s-3.320313 8.113281-.273437 11.3125l8.679687 9.109375c3.046875 3.199219 8.113281 3.320313 11.3125.273438zm0 0"/><path d="m248.429688 30.488281c3.046874-3.199219 2.925781-8.265625-.273438-11.3125-3.199219-3.050781-8.261719-2.925781-11.3125.273438l-8.679688 9.105469c-3.046874 3.199218-2.925781 8.265624.273438 11.3125 3.199219 3.046874 8.265625 2.925781 11.3125-.273438zm0 0"/></g></svg>