<?xml version="1.0" encoding="UTF-8"?>
<!DOCTYPE svg PUBLIC "-//W3C//DTD SVG 1.1//EN" "http://www.w3.org/Graphics/SVG/1.1/DTD/svg11.dtd">
<!-- Creator: CorelDRAW 2020 (64-Bit) -->
<svg xmlns="http://www.w3.org/2000/svg" xml:space="preserve" width="210mm" height="210mm" version="1.1" style="shape-rendering:geometricPrecision; text-rendering:geometricPrecision; image-rendering:optimizeQuality; fill-rule:evenodd; clip-rule:evenodd"
viewBox="0 0 3137.4 3137.4"
 xmlns:xlink="http://www.w3.org/1999/xlink"
 xmlns:xodm="http://www.corel.com/coreldraw/odm/2003">
 <defs>
  <style type="text/css">
   <![CDATA[
    .fil10 {fill:#373435;fill-rule:nonzero}
    .fil9 {fill:black;fill-rule:nonzero}
    .fil3 {fill:#148CE0;fill-rule:nonzero}
    .fil2 {fill:#39C3FC;fill-rule:nonzero}
    .fil1 {fill:#798699;fill-rule:nonzero}
    .fil0 {fill:#8C95A4;fill-rule:nonzero}
    .fil5 {fill:#AFB8C9;fill-rule:nonzero}
    .fil7 {fill:#B6C1CE;fill-rule:nonzero}
    .fil6 {fill:#ECECEC;fill-rule:nonzero}
    .fil8 {fill:#FB5968;fill-rule:nonzero}
    .fil4 {fill:#FFEAA7;fill-rule:nonzero}
   ]]>
  </style>
 </defs>
 <g id="Capa_x0020_1">
  <metadata id="CorelCorpID_0Corel-Layer"/>
  <path class="fil0" d="M1315.68 2934.99c0,83.85 67.96,151.81 151.81,151.81 83.85,0 151.81,-67.96 151.81,-151.81l0 -202.41 -303.62 0 0 202.41z"/>
  <rect class="fil1" x="1315.68" y="2732.57" width="303.62" height="202.41"/>
  <path class="fil0" d="M2479.56 2934.99c0,83.85 67.96,151.81 151.81,151.81 83.85,0 151.81,-67.96 151.81,-151.81l0 -202.41 -303.62 0 0 202.41z"/>
  <rect class="fil1" x="2479.56" y="2732.57" width="303.62" height="202.41"/>
  <path class="fil2" d="M2644.57 1705.13c-7.59,-49.39 -50.1,-85.82 -100.04,-85.82l-990.2 0c-49.95,0 -92.45,36.43 -100.04,85.82l-85.67 556.79 -2.33 116.44 1366.29 0 -2.48 -117.25 -85.52 -555.98z"/>
  <path class="fil3" d="M2730.09 2261.1l-26.01 -168.96c-39.27,-11.08 -80.51,-17.41 -123.32,-17.41l-1062.67 0c-42.81,0 -84.05,6.33 -123.37,17.41l-26.11 169.77 -2.33 116.44 1366.29 0 -2.48 -117.25z"/>
  <path class="fil4" d="M1518.1 2226.54l1062.67 0c167.7,0 303.62,135.92 303.62,303.62l0 253.02 -1669.91 -0 0 -253.02c0,-167.7 135.92,-303.62 303.62,-303.62z"/>
  <rect class="fil5" x="1214.48" y="2530.16" width="1669.91" height="253.02"/>
  <rect class="fil0" x="1214.48" y="2631.37" width="1669.91" height="151.81"/>
  <path class="fil6" d="M2226.54 2428.95l-354.22 0c-55.92,0 -101.21,45.29 -101.21,101.21l0 253.02 556.64 0 0 -253.02c0,-55.92 -45.29,-101.21 -101.21,-101.21z"/>
  <rect class="fil6" x="607.24" y="1214.48" width="202.41" height="1872.32"/>
  <rect class="fil7" x="607.24" y="2934.99" width="202.41" height="151.81"/>
  <path class="fil4" d="M1214.48 2226.54l-101.21 0c-55.92,0 -101.21,-45.29 -101.21,-101.21l0 0c0,-55.92 45.29,-101.21 101.21,-101.21l101.21 0 0 202.41z"/>
  <path class="fil4" d="M2884.38 2226.54l101.21 0c55.92,0 101.21,-45.29 101.21,-101.21l0 0c0,-55.92 -45.29,-101.21 -101.21,-101.21l-101.21 0 0 202.41z"/>
  <circle class="fil8" cx="708.45" cy="708.45" r="657.84"/>
  <circle class="fil6" cx="708.45" cy="708.45" r="455.43"/>
  <path class="fil9" d="M2985.59 2277.14c83.7,0 151.81,-68.11 151.81,-151.81 0,-83.7 -68.11,-151.81 -151.81,-151.81l-151.81 0 0 101.21 -81.17 0 -58.04 -377.3c-11.49,-74.59 -74.54,-128.73 -150.04,-128.73l-990.2 0c-75.5,0 -138.55,54.15 -150.04,128.73l-58.04 377.3 -81.17 0 0 -101.21 -151.81 0c-83.7,0 -151.81,68.11 -151.81,151.81 0,83.7 68.11,151.81 151.81,151.81l151.81 0 0 -101.21 65.58 0 -9.21 59.81c-94.93,63.61 -157.58,171.8 -157.58,294.41l0 303.62 101.21 0 0 101.21c0,37.04 10.73,71.3 28.13,101.21l-432.96 0 0 -1636.1c317.89,-69.73 556.64,-353.16 556.64,-691.64 0,-390.66 -317.79,-708.45 -708.44,-708.45 -390.66,0 -708.45,317.79 -708.45,708.45 0,338.48 238.75,621.91 556.64,691.64l0 1636.1 -354.22 0 0 101.21 354.22 0 303.62 0 2074.73 0 0 -101.21 -129.34 0c17.41,-29.91 28.13,-64.16 28.13,-101.21l0 -101.21 101.21 0 0 -303.62c0,-122.61 -62.65,-230.8 -157.58,-294.41l-9.21 -59.81 65.58 0 0 101.21 151.81 0zm-1821.72 -101.21l-50.6 0c-27.88,0 -50.6,-22.72 -50.6,-50.6 0,-27.88 22.72,-50.6 50.6,-50.6l50.6 0 0 101.21zm-1062.67 -1467.49c0,-334.84 272.4,-607.24 607.24,-607.24 334.84,0 607.24,272.4 607.24,607.24 0,334.84 -272.4,607.24 -607.24,607.24 -334.84,0 -607.24,-272.4 -607.24,-607.24zm607.24 708.44c17.1,0 33.8,-1.37 50.6,-2.58l0 103.79 -101.21 0 0 -103.79c16.8,1.21 33.5,2.58 50.6,2.58zm-50.6 1619.3l0 -1416.89 101.21 0 0 1416.89 -101.21 0zm2170.83 -556.64l-459.63 0c-20.95,-58.75 -76.61,-101.21 -142.5,-101.21l-354.22 0c-65.89,0 -121.55,42.46 -142.5,101.21l-459.63 0c23.53,-115.32 125.7,-202.41 247.91,-202.41l1062.67 0c122.16,0 224.37,87.09 247.91,202.41zm-1563.59 253.02l0 -151.81 455.43 0 0 151.81 -455.43 0zm404.83 101.21l759.05 0 0 101.21c0,37.04 10.73,71.3 28.13,101.21l-815.32 0c17.41,-29.91 28.13,-64.16 28.13,-101.21l0 -101.21zm151.81 -101.21l0 -202.41c0,-27.88 22.72,-50.6 50.6,-50.6l354.22 0c27.88,0 50.6,22.72 50.6,50.6l0 202.41 -455.43 0zm-455.43 202.41l0 -101.21 202.41 0 0 101.21c0,55.82 -45.39,101.21 -101.21,101.21 -55.82,0 -101.21,-45.39 -101.21,-101.21zm1366.29 0c0,55.82 -45.39,101.21 -101.21,101.21 -55.82,0 -101.21,-45.39 -101.21,-101.21l0 -101.21 202.41 0 0 101.21zm-354.22 -202.41l0 -151.81 455.43 0 0 151.81 -455.43 0zm202.41 -556.63l-1062.67 0c-29.96,0 -58.95,4.15 -86.78,11.18l72.97 -474.35c3.85,-24.85 24.9,-42.86 50.05,-42.86l990.2 0c25.15,0 46.2,18.01 50,42.91l72.97 474.35c-27.78,-7.08 -56.78,-11.23 -86.74,-11.23zm354.22 -101.21l50.6 0c27.88,0 50.6,22.72 50.6,50.6 0,27.88 -22.72,50.6 -50.6,50.6l-50.6 0 0 -101.21z"/>
  <rect class="fil9" x="1619.3" y="1973.53" width="657.84" height="101.21"/>
  <rect class="fil9" x="2378.35" y="1973.53" width="101.21" height="101.21"/>
  <rect class="fil9" x="3036.19" y="3036.19" width="101.21" height="101.21"/>
  <rect class="fil9" y="3036.19" width="101.21" height="101.21"/>
  <polygon class="fil10" points="506.85,1107.95 506.85,1068.61 605.19,1068.61 605.19,345.82 506.85,345.82 506.85,308.94 910.04,308.94 910.04,345.82 811.7,345.82 811.7,1068.61 910.04,1068.61 910.04,1107.95 "/>
 </g>
</svg>
