<?xml version="1.0" encoding="UTF-8"?>
<!DOCTYPE svg PUBLIC "-//W3C//DTD SVG 1.1//EN" "http://www.w3.org/Graphics/SVG/1.1/DTD/svg11.dtd">
<!-- Creator: CorelDRAW 2020 (64-Bit) -->
<svg xmlns="http://www.w3.org/2000/svg" xml:space="preserve" width="77.7846mm" height="135.467mm" version="1.1" style="shape-rendering:geometricPrecision; text-rendering:geometricPrecision; image-rendering:optimizeQuality; fill-rule:evenodd; clip-rule:evenodd"
viewBox="0 0 5710.9 9945.88"
 xmlns:xlink="http://www.w3.org/1999/xlink"
 xmlns:xodm="http://www.corel.com/coreldraw/odm/2003">
 <defs>
  <style type="text/css">
   <![CDATA[
    .fil13 {fill:none;fill-rule:nonzero}
    .fil12 {fill:#6EFF6E}
    .fil14 {fill:white}
    .fil11 {fill:black;fill-rule:nonzero}
    .fil4 {fill:#454045;fill-rule:nonzero}
    .fil6 {fill:#544F57;fill-rule:nonzero}
    .fil5 {fill:#AFAAB4;fill-rule:nonzero}
    .fil9 {fill:#E2A770;fill-rule:nonzero}
    .fil8 {fill:#F1B986;fill-rule:nonzero}
    .fil7 {fill:#F1D0A5;fill-rule:nonzero}
    .fil10 {fill:#FC3F46;fill-rule:nonzero}
    .fil1 {fill:#FC3F46;fill-rule:nonzero}
    .fil0 {fill:red;fill-rule:nonzero}
    .fil3 {fill:#FFD064;fill-rule:nonzero}
    .fil2 {fill:white;fill-rule:nonzero}
   ]]>
  </style>
 </defs>
 <g id="Capa_x0020_1">
  <metadata id="CorelCorpID_0Corel-Layer"/>
  <path class="fil0" d="M5179.97 9800l-4649.04 0c-212.67,0 -385.08,-172.4 -385.08,-385.08l0 -1912.02c0,-1068.33 866.06,-1934.4 1934.4,-1934.4l1550.42 0.01c1068.33,0 1934.4,866.06 1934.4,1934.4l0 1912.02c-0.02,212.67 -172.42,385.08 -385.09,385.08l0 -0.01z"/>
  <path class="fil1" d="M3630.65 5568.51l-568.38 0c1068.33,0 1934.4,866.06 1934.4,1934.4l0 1912.02c0,212.67 -172.4,385.08 -385.08,385.08l568.38 -0.01c212.67,0 385.08,-172.4 385.08,-385.08l0 -1912.02c0,-1068.33 -866.06,-1934.4 -1934.4,-1934.4l0 0.01z"/>
  <path class="fil2" d="M3630.65 5568.51l-15.73 0 0 782.75 1570.01 0c-352.46,-474.92 -917.4,-782.75 -1554.28,-782.75l0.01 0z"/>
  <path class="fil3" d="M4616.54 6351.28l568.38 0c-103.54,-85.82 -440.5,-744.71 -1570.01,-782.75l0 80.26c405.61,120.71 755.45,370.78 1001.63,702.49l-0.01 -0.01z"/>
  <path class="fil2" d="M2095.96 6351.28l0 -782.75 -15.73 -0.01c-636.88,0 -1201.82,307.83 -1554.28,782.75l1570.01 0.01z"/>
  <polygon class="fil4" points="2855.45,6205.91 2691.3,6983.57 3285.78,9800 3614.06,9800 "/>
  <polygon class="fil5" points="2197.03,7138.74 2854.16,6481.62 3511.28,7138.74 2854.16,7795.88 "/>
  <polygon class="fil6" points="2855.45,6922.27 3819.76,4533.57 1891.14,4533.57 "/>
  <path class="fil7" d="M2855.45 5865.86c-959.3,0 -1736.98,-777.67 -1736.98,-1736.99l0 -1386.93 3473.96 0.01 0 1386.93c-0.02,959.31 -777.67,1736.99 -1736.99,1736.99l0 -0.01z"/>
  <path class="fil8" d="M4186.36 2741.96c-1022.63,0 -2045.25,0 -3067.89,0l0 487.03c875.45,408.37 1750.9,507.78 2626.36,298.63 224.96,-53.75 441.51,114.74 441.51,346.04l0 255.23c0,890.61 -670.33,1624.54 -1533.93,1725.11 66.61,7.76 134.34,11.88 203.02,11.88 959.31,0 1736.99,-777.67 1736.99,-1736.99l0 -1386.93 -406.05 0z"/>
  <g id="_1682366392016">
   <path class="fil9" d="M1118.47 4206.67l-144 0c-218.14,0 -394.95,-176.83 -394.95,-394.95l0 -81.93c0,-218.14 176.83,-394.95 394.95,-394.95l144 -0.01 0 871.84z"/>
   <path class="fil9" d="M4592.41 4206.67l144.01 0c218.14,0 394.95,-176.83 394.95,-394.95l0 -81.93c0,-218.14 -176.83,-394.95 -394.95,-394.95l-144.01 -0.01 0 871.84z"/>
  </g>
  <path class="fil6" d="M4682.03 2906.25c-1217.73,597.34 -2435.45,597.34 -3653.16,0 -54.84,-26.89 -89.75,-82.59 -89.75,-143.67l0 -330.92 3832.66 0 0 330.92c0,61.08 -34.91,116.77 -89.75,143.67z"/>
  <path class="fil4" d="M4483.63 2431.66l0 330.92c0,61.06 -34.91,116.77 -89.75,143.67 -560.84,275.1 -1121.67,423.17 -1682.51,444.88 656.88,25.42 1313.77,-122.65 1970.66,-444.88 54.84,-26.89 89.75,-82.61 89.75,-143.67l0 -330.92 -288.15 0z"/>
  <path class="fil0" d="M4833.37 962.41c-673.63,99.34 -1348.39,-172.84 -1764.56,-711.76 -107.91,-139.75 -318.79,-139.75 -426.71,0 -416.17,538.92 -1090.93,811.1 -1764.56,711.76l-169.8 -25.03c-145.99,-21.53 -248.88,138.19 -169.97,262.87 168.84,266.75 260.82,578.27 260.82,899.7l0 331.71 2056.87 0 0 -0.02 0 0.02 2056.87 0 0 -331.71c0,-321.42 91.99,-632.95 260.82,-899.7 78.92,-124.67 -23.98,-284.4 -169.97,-262.87l-169.83 25.03z"/>
  <g id="_1682366391200">
   <path class="fil10" d="M937.48 970.23c-19.97,-2.3 -39.96,-4.86 -59.95,-7.82l-169.8 -25.03c-53.57,-7.89 -101.22,8.75 -136.35,38.97 123.06,9.99 245.6,7.66 366.09,-6.12l0.01 0z"/>
   <path class="fil10" d="M4344.73 970.23c-498.31,-57.06 -961.12,-311.91 -1275.93,-719.58 -107.91,-139.75 -318.79,-139.75 -426.71,0 -0.33,0.41 -0.66,0.81 -0.99,1.23 403.89,522.12 1050.65,793.38 1703.62,718.36l0.01 0z"/>
   <path class="fil10" d="M5003.18 937.38l-169.8 25.03c-40.86,6.03 -81.74,10.62 -122.54,13.94 60.56,52.14 83.58,144.96 33.63,223.89 -168.84,266.75 -260.82,578.27 -260.82,899.7l0 331.71 428.69 0.01 0 -331.71c0,-321.44 91.99,-632.95 260.82,-899.7 78.9,-124.7 -24.02,-284.4 -169.99,-262.87l0.01 0z"/>
   <polygon class="fil10" points="2426.76,2431.66 2426.76,2431.64 "/>
  </g>
  <path class="fil11" d="M3500.06 3914.57l0 176.37c0,80.57 65.28,145.85 145.85,145.85 80.57,0 145.85,-65.28 145.85,-145.85l0 -176.37c0,-80.57 -65.28,-145.85 -145.85,-145.85 -80.57,0 -145.85,65.28 -145.85,145.85z"/>
  <path class="fil11" d="M1919.13 3914.57l0 176.37c0,80.57 65.28,145.85 145.85,145.85 80.57,0 145.85,-65.28 145.85,-145.85l0 -176.37c0,-80.57 -65.28,-145.85 -145.85,-145.85 -80.57,0 -145.85,65.28 -145.85,145.85z"/>
  <path class="fil11" d="M3095.54 4674.99c-166.06,126.02 -314.14,126.02 -480.2,0 -64.15,-48.68 -155.66,-36.13 -204.37,28 -48.7,64.18 -36.15,155.66 28,204.37 136.23,103.38 276.34,155.07 416.46,155.07 140.12,0 280.23,-51.67 416.46,-155.07 64.18,-48.71 76.7,-140.19 28,-204.37 -48.7,-64.18 -140.17,-76.72 -204.35,-28l-0.01 0z"/>
  <rect class="fil12" x="291.72" y="8255.68" width="5127.46" height="901.05"/>
  <path class="fil11" d="M4156 5489.77c87.13,-83.1 166.93,-174.93 237.7,-274.98 46.52,-65.77 30.88,-156.78 -34.89,-203.3 -65.77,-46.5 -156.78,-30.9 -203.3,34.89 -298.28,421.79 -784.29,673.63 -1300.08,673.63 -877.33,0 -1591.1,-713.77 -1591.1,-1591.11l0 -794.07 0 -162.68c511.44,210.67 1048.88,326.66 1591.1,326.66 556.36,0 1094.84,-122.18 1591.13,-326.66l0 162.68 0 794.07c0,146.43 -19.91,291.59 -59.2,431.42 -21.78,77.54 23.44,158.09 100.97,179.87 77.55,21.8 158.09,-23.41 179.87,-100.97 26.35,-93.83 45.08,-189.71 56.59,-286.65l11.63 -0.01c298.2,0 540.83,-242.62 540.83,-540.83l0 -81.93c0,-297.58 -241.61,-539.78 -538.98,-540.77l0 -148.01c2.67,-1.3 5.31,-2.49 7.97,-3.8 0.02,0 0.02,0 0.04,-0.02 104.1,-51.09 171.35,-158.89 171.35,-274.6l0 -185.06 143.31 0.01c80.57,0 145.85,-65.28 145.85,-145.85 0,-80.57 -65.28,-145.85 -145.85,-145.85l-2.78 0 0 -185.88c0,-291.36 82.36,-575.5 238.21,-821.7 67.52,-106.65 66.8,-238.56 -1.91,-344.21 -68.43,-105.27 -188.07,-159.23 -312.6,-140.95l-169.77 25.05c-620.66,91.55 -1244.41,-160.07 -1627.85,-656.63 -79.26,-102.66 -199.1,-161.51 -328.82,-161.51 -129.69,0 -249.52,58.85 -328.79,161.51 -159.8,206.95 -368.35,377.86 -603.13,494.25 -72.17,35.78 -101.69,123.29 -65.91,195.46 35.8,72.17 123.32,101.65 195.46,65.91 274.18,-135.94 517.78,-335.56 704.47,-577.33 23.59,-30.55 59.29,-48.09 97.89,-48.09 38.62,0 74.33,17.53 97.92,48.09 447.83,579.93 1176.3,873.8 1901.31,766.94l169.77 -25.05c4.07,-0.64 16.49,-2.43 25.48,11.36 9.35,14.41 2.31,25.55 0,29.21 -185.43,292.94 -283.44,631.02 -283.44,977.71l0 185.88 -3822.02 -0.01 0 -185.88c0,-346.69 -98.01,-684.78 -283.44,-977.69 -2.31,-3.66 -9.35,-14.82 0,-29.23 8.99,-13.81 21.41,-11.96 25.45,-11.36l169.8 25.05c185.57,27.36 374.28,28.74 560.98,4.13 79.85,-10.54 136.05,-83.82 125.51,-163.69 -10.54,-79.87 -83.9,-136.17 -163.69,-125.51 -159.82,21.1 -321.42,19.91 -480.21,-3.52l-169.81 -25.05c-124.46,-18.32 -244.16,35.69 -312.58,140.95 -68.68,105.67 -69.41,237.57 -1.91,344.23 155.85,246.18 238.21,530.32 238.21,821.68l0 185.88 -2.78 0c-80.57,0 -145.85,65.28 -145.85,145.85 0,80.57 65.28,145.85 145.85,145.85l143.31 0 0 185.06c0,115.72 67.24,223.52 171.37,274.63 2.67,1.3 5.31,2.49 7.97,3.8l0 148.01c-297.35,1.01 -538.98,243.19 -538.98,540.77l0 81.93c0,298.2 242.62,540.83 540.83,540.83l11.49 -0.01c52.9,444.86 261.37,842.63 569.49,1137.12 -905.83,235.41 -1555.45,1057.22 -1555.45,2013.25l0 1912.02c0,292.76 238.17,530.92 530.95,530.92l456.37 -0.01c80.57,0 145.85,-65.28 145.85,-145.85 0,-80.57 -65.28,-145.85 -145.85,-145.85l-456.37 0c-131.91,0 -239.24,-107.33 -239.24,-239.22l0 -1912.04c0,-361.8 108.65,-710.88 309.58,-1005.77l1088.67 0.01 397.7 932.82c17.33,40.61 52.1,71.19 94.57,83.18 82.96,23.34 136.02,-32.44 146.46,-37.4l90.56 90.56 -440.69 2087.84 -408.1 0.01c-80.57,0 -145.85,65.28 -145.85,145.85 0,80.57 65.28,145.85 145.85,145.85l3609.49 -0.01c292.77,0 530.95,-238.17 530.95,-530.92l0 -1912.02c0,-951.01 -644.91,-1776.38 -1554.9,-2013.14l0 0.01zm829.56 -1759.99l0 81.93c0,136.75 -110.75,248.13 -247.27,249.12l0 -580.15c136.5,0.97 247.27,112.35 247.27,249.1zm-359.64 -1152.26c-3.03,186.21 6.71,190.43 -8.13,197.8 -544.6,267.12 -1141.11,432.79 -1762.37,432.79 -620.94,0 -1218.4,-165.94 -1762.3,-432.77 -4.96,-2.45 -8.16,-7.44 -8.16,-12.76l0 -185.06 3540.96 0zm-3900.57 1234.19l0 -81.93c0,-136.75 110.75,-248.13 247.27,-249.12l0 580.15c-136.52,-0.97 -247.27,-112.35 -247.27,-249.1zm2700.58 3337.2l-392.15 -278.82 381.01 -943.77c132.18,-41.25 259.23,-97.02 378.95,-165.86l36.19 29.65c76.5,62.7 102.82,169.99 64.04,260.96l-468.03 1097.83zm736.4 -983.41c50.47,-118.4 52.99,-248.77 13.91,-365.84 254.54,81.42 488.44,219.54 684.69,405.77l-715.61 0 17.01 -39.93zm-1091.53 -166.35l-215.36 533.46 -215.27 -533.28c70.67,8.09 142.47,12.39 215.27,12.39 72.38,0 144.26,-4.34 215.36,-12.56zm-2220.85 206.28c196.26,-186.23 430.15,-324.34 684.69,-405.77 -39.09,117.07 -36.56,247.45 13.91,365.84l17.02 39.93 -715.62 0zm966.96 -154.33c-38.78,-90.97 -12.47,-198.26 64.04,-260.96l35.96 -29.46c118.94,68.67 246.03,124.73 379.45,166.31l380.76 943.13 -392.15 278.82 -468.06 -1097.83zm1038.53 1050.13l285.64 203.07 -285.64 285.64 -285.62 -285.64 285.62 -203.07zm-578.76 2552.92l388.73 -1841.68c66.55,56.47 99.12,129.59 190.03,129.59 90.89,0 123.01,-72.73 190.04,-129.64l388.73 1841.72 -1157.54 0.01zm3142.5 -239.22c0,131.89 -107.33,239.22 -239.24,239.22l-1447.63 0 -440.69 -2087.86 90.55 -90.55c10.48,4.98 63.42,60.77 146.46,37.41 42.5,-11.98 77.27,-42.57 94.57,-83.18l397.7 -932.82 1088.66 0c200.93,294.92 309.6,643.98 309.6,1005.77l0 1912 0.02 0z"/>
  <path class="fil2" d="M2204.77 2137.99c71.37,0 106.4,-38.19 106.4,-82.83 0,-94.69 -136.2,-65.28 -136.2,-104.69 0,-12.93 10.29,-23.18 38.78,-23.18 20.92,0 43.57,6.59 66.54,19.91l20.92 -54.01c-23.66,-14.68 -55.9,-22.39 -87.13,-22.39 -71.37,0 -106.4,37.42 -106.4,83.37 0,95.53 136.55,65.81 136.55,106.44 0,12.49 -10.98,20.89 -39.12,20.89 -27.8,0 -58,-10.2 -79.27,-25.22l-22.3 53.46c22.64,16.89 61.76,28.24 101.23,28.24l-0.01 -0.01zm248.41 0c71.03,0 112.88,-42.93 112.88,-119.66l0 -142.4 -66.94 0 0 140.21c0,44.06 -17.17,61.66 -45.26,61.66 -28.49,0 -45.67,-17.61 -45.67,-61.66l0 -140.21 -67.96 0 0 142.4c0,76.73 41.86,119.66 112.89,119.66l0.05 0zm206.21 -5.12l67.96 0 0 -199.33 73.42 0 0 -57.62 -215.14 0 0 57.62 73.76 0 0 199.33zm315.34 0l72.74 0 -51.81 -80.73c29.86,-15.42 47.03,-43.32 47.03,-81.14 0,-58.74 -41.17,-95.09 -106.69,-95.09l-109.81 0 0 256.95 67.96 0 0 -68.29 37.08 0 43.57 68.29 -0.05 0.01zm-0.68 -161.87c0,23.52 -14.1,37.42 -42.19,37.42l-37.76 0 0 -75.23 37.76 0c28.15,0 42.19,13.95 42.19,37.8zm285.83 161.87l70.69 0 -106.36 -256.95 -66.93 0 -106.01 256.95 69.33 0 18.88 -49.9 101.57 0 18.88 49.9 -0.04 0zm-100.55 -103.52l30.88 -82.25 30.88 82.25 -61.77 0 0.01 0zm352.37 -153.42l0 136.93 -106.01 -136.93 -55.9 0 0 256.95 66.54 0 0 -136.93 106 136.93 55.91 0 0 -256.95 -66.54 0z"/>
  <g id="_1363678314784">
   <path class="fil13" d="M3071.46 884.26c-685.54,162.34 -150.4,293.41 -157.46,450.55 -7.07,157.13 -216.32,172.88 -548.19,196.44"/>
   <path class="fil13" d="M3114.23 908.15c-640.7,181.02 117.06,232.61 124.12,561.64 18.67,137.15 -100.77,233.47 -222.07,333.6"/>
   <path class="fil14" d="M3338.59 1331.01c0,-176.24 -89.91,-331.54 -226.41,-422.32 -637.01,180.6 119.12,232.39 126.19,560.98 18.67,137.15 -100.77,233.48 -222.08,333.6 188.62,-73.85 322.3,-257.47 322.3,-472.27z"/>
   <path class="fil14" d="M2913.99 1334.81c6.95,-157.13 -528.21,-288.2 157.46,-450.55 -71.34,-38.33 -153.01,-60.17 -239.66,-60.17 -279.96,0 -506.91,226.95 -506.91,506.91 0,71.14 14.66,138.78 41.05,200.13 331.86,-23.56 541.23,-39.31 548.19,-196.44l-0.12 0.11z"/>
  </g>
 </g>
</svg>
