<svg id="Layer_35" enable-background="new 0 0 64 64" height="512" viewBox="0 0 64 64" width="512" xmlns="http://www.w3.org/2000/svg"><g fill="#ffeaa7"><circle cx="53" cy="53" r="9"/><circle cx="53" cy="11" r="9"/><circle cx="11" cy="11" r="9"/></g><path d="m14.6 14.99c1.05.63 1.92 1.53 2.52 2.61-1.6 1.49-3.76 2.4-6.12 2.4s-4.52-.91-6.12-2.4c1.2-2.15 3.49-3.6 6.12-3.6 1.32 0 2.54.36 3.6.99z" fill="#b4dd7f"/><path d="m56.6 14.99c1.05.63 1.92 1.53 2.52 2.61-1.6 1.49-3.76 2.4-6.12 2.4s-4.52-.91-6.12-2.4c1.2-2.15 3.49-3.6 6.12-3.6 1.32 0 2.54.36 3.6.99z" fill="#b4dd7f"/><path d="m56.6 56.99c1.05.63 1.92 1.53 2.52 2.61-1.6 1.49-3.76 2.4-6.12 2.4s-4.52-.91-6.12-2.4c1.2-2.15 3.49-3.6 6.12-3.6 1.32 0 2.54.36 3.6.99z" fill="#b4dd7f"/><path d="m9 55 6 7h-8-5v-5c0-3.59 1.46-6.84 3.81-9.19.44-.44.91-.85 1.41-1.22l.78 4.41 2 2z" fill="#656d78"/><path d="m21 55-1-2 2-2 .78-4.41c3.17 2.36 5.22 6.15 5.22 10.41v5h-5-8z" fill="#656d78"/><path d="m15 58 4-13 .11-.33c1.33.44 2.57 1.09 3.67 1.92l-.78 4.41-2 2 1 2-6 7-6-7 1-2-2-2-.78-4.41c1.1-.83 2.34-1.48 3.67-1.92l.11.33z" fill="#969faa"/><path d="m19.11 44.67-.11.33-4 13-4-13-.11-.33c1.29-.44 2.67-.67 4.11-.67s2.82.23 4.11.67z" fill="#b4dd7f"/><circle cx="32" cy="6" fill="#ff826e" r="4"/><circle cx="58" cy="32" fill="#ff826e" r="4"/><circle cx="53" cy="52" fill="#f0d0b4" r="4"/><circle cx="53" cy="10" fill="#f0d0b4" r="4"/><circle cx="11" cy="10" fill="#f0d0b4" r="4"/><path d="m32 17c-7.716 0-14.064 5.827-14.9 13.32 1.09.34 2.06.94 2.85 1.73 1.27 1.27 2.05 3.01 2.05 4.95 0 1.08-.24 2.09-.68 3-.25.54-.57 1.03-.94 1.48 2.75 3.368 6.933 5.52 11.62 5.52 8.284 0 15-6.716 15-15s-6.716-15-15-15z" fill="#69d6f4"/><path d="m21.32 40c-.25.54-.57 1.03-.94 1.48-1.29 1.54-3.22 2.52-5.38 2.52-3.87 0-7-3.13-7-7s3.13-7 7-7c.73 0 1.44.11 2.1.32 1.09.34 2.06.94 2.85 1.73 1.27 1.27 2.05 3.01 2.05 4.95 0 1.08-.24 2.09-.68 3z" fill="#f0d0b4"/><path d="m27 27h2v2h-2z"/><path d="m31 27h2v2h-2z"/><path d="m35 27h2v2h-2z"/><path d="m27 35h2v2h-2z"/><path d="m31 35h2v2h-2z"/><path d="m35 35h2v2h-2z"/><path d="m47.949 33h5.152c.465 2.279 2.484 4 4.899 4 2.757 0 5-2.243 5-5s-2.243-5-5-5c-2.414 0-4.434 1.721-4.899 4h-5.152c-.228-3.658-1.683-6.981-3.968-9.568l2.694-2.694c1.725 1.412 3.927 2.262 6.325 2.262 5.514 0 10-4.486 10-10s-4.486-10-10-10-10 4.486-10 10c0 2.398.85 4.6 2.262 6.324l-2.694 2.694c-2.587-2.284-5.91-3.74-9.568-3.968v-5.152c2.279-.465 4-2.484 4-4.899 0-2.757-2.243-5-5-5s-5 2.243-5 5c0 2.414 1.721 4.434 4 4.899v5.148c-3.651.226-6.99 1.664-9.586 3.954l-2.676-2.676c1.412-1.724 2.262-3.926 2.262-6.324 0-5.514-4.486-10-10-10s-10 4.486-10 10 4.486 10 10 10c2.398 0 4.6-.85 6.324-2.262l2.683 2.683c-1.874 2.124-3.193 4.755-3.727 7.691-.417-.067-.843-.112-1.28-.112-4.411 0-8 3.589-8 8 0 2.805 1.455 5.274 3.646 6.702-5.593 1.836-9.646 7.099-9.646 13.298v6h28v-6c0-6.199-4.053-11.462-9.646-13.298.354-.231.685-.491.997-.773 3.023 3.225 7.199 5.071 11.649 5.071 4.052 0 7.746-1.526 10.568-4.018l2.694 2.694c-1.412 1.724-2.262 3.926-2.262 6.324 0 5.514 4.486 10 10 10s10-4.486 10-10-4.486-10-10-10c-2.398 0-4.6.85-6.324 2.262l-2.694-2.694c2.284-2.587 3.739-5.91 3.967-9.568zm10.051-4c1.654 0 3 1.346 3 3s-1.346 3-3 3-3-1.346-3-3 1.346-3 3-3zm-13.894 10h-4.567c.753-1.764 1.282-3.771 1.411-6h5c-.155 2.175-.805 4.211-1.844 6zm-12.106 6.727c-.884-.734-2.639-2.358-4.182-4.727h8.363c-1.542 2.368-3.297 3.992-4.181 4.727zm-5.324-6.727c-.849-1.732-1.473-3.748-1.624-6h13.895c-.15 2.252-.775 4.268-1.624 6zm-3.625-6c.128 2.229.658 4.236 1.411 6h-1.725c.166-.641.263-1.308.263-2 0-1.458-.398-2.822-1.082-4zm8.949-14.727c.884.734 2.639 2.358 4.182 4.727h-8.363c1.542-2.368 3.297-3.992 4.181-4.727zm5.324 6.727c.849 1.732 1.473 3.748 1.624 6h-13.895c.15-2.252.775-4.268 1.624-6zm3.625 6c-.128-2.229-.658-4.236-1.411-6h4.567c1.039 1.789 1.689 3.825 1.844 6zm7.259-13.609c1.125-1.492 2.895-2.391 4.792-2.391s3.667.9 4.792 2.391c-1.338 1.005-2.994 1.609-4.792 1.609s-3.454-.604-4.792-1.609zm1.792-7.391c0-1.654 1.346-3 3-3s3 1.346 3 3-1.346 3-3 3-3-1.346-3-3zm3-7c4.411 0 8 3.589 8 8 0 1.893-.664 3.633-1.768 5.004-.792-.986-1.796-1.763-2.931-2.278 1.034-.917 1.699-2.239 1.699-3.726 0-2.757-2.243-5-5-5s-5 2.243-5 5c0 1.487.665 2.809 1.699 3.726-1.135.516-2.139 1.293-2.931 2.278-1.104-1.371-1.768-3.111-1.768-5.004 0-4.411 3.589-8 8-8zm-10.292 20h-4.155c-1.113-1.963-2.416-3.526-3.53-4.662 3.056.676 5.737 2.348 7.685 4.662zm-13.708-17c0-1.654 1.346-3 3-3s3 1.346 3 3-1.346 3-3 3-3-1.346-3-3zm-.027 12.341c-1.113 1.136-2.415 2.697-3.526 4.659h-4.159c1.951-2.323 4.635-3.987 7.685-4.659zm-25.973-7.341c0-4.411 3.589-8 8-8s8 3.589 8 8c0 1.893-.664 3.633-1.768 5.004-.792-.986-1.796-1.763-2.931-2.278 1.034-.917 1.699-2.239 1.699-3.726 0-2.757-2.243-5-5-5s-5 2.243-5 5c0 1.487.665 2.809 1.699 3.726-1.135.515-2.139 1.292-2.931 2.278-1.104-1.372-1.768-3.111-1.768-5.004zm5-1c0-1.654 1.346-3 3-3s3 1.346 3 3-1.346 3-3 3-3-1.346-3-3zm-1.792 7.391c1.125-1.492 2.895-2.391 4.792-2.391s3.667.9 4.792 2.391c-1.338 1.005-2.994 1.609-4.792 1.609s-3.454-.604-4.792-1.609zm13.679 7.609h4.575c-.753 1.764-1.282 3.771-1.411 6h-2.777c-.612-.539-1.305-.988-2.061-1.321.281-1.688.857-3.263 1.674-4.679zm-.078 29.854-4.359 5.085 4.294-13.957c.681.294 1.331.648 1.94 1.057l-.614 3.476-2.287 2.287zm-10.879-4.338-.614-3.476c.609-.41 1.259-.763 1.94-1.057l4.294 13.957-4.359-5.085 1.025-2.051zm-5.93 6.484c0-3.32 1.356-6.328 3.543-8.503l.527 2.987 1.713 1.713-.975 1.949 5.018 5.854h-4.826v-5h-2v5h-3zm24 0v4h-3v-5h-2v5h-4.826l5.017-5.854-.975-1.949 1.713-1.713.527-2.987c2.188 2.175 3.544 5.183 3.544 8.503zm-9.155-11.645-2.845 9.245-2.845-9.245c.914-.224 1.863-.355 2.845-.355s1.931.131 2.845.355zm-8.845-8.355c0-3.309 2.691-6 6-6s6 2.691 6 6-2.691 6-6 6-6-2.691-6-6zm12.668 4.411c.088-.133.169-.272.25-.411h3.529c1.115 1.967 2.421 3.533 3.536 4.669-2.805-.616-5.348-2.098-7.315-4.258zm13.356 4.251c1.114-1.136 2.417-2.699 3.53-4.662h4.155c-1.949 2.314-4.63 3.986-7.685 4.662zm13.184 13.729c1.125-1.492 2.895-2.391 4.792-2.391s3.667.9 4.792 2.391c-1.338 1.005-2.994 1.609-4.792 1.609s-3.454-.604-4.792-1.609zm1.792-7.391c0-1.654 1.346-3 3-3s3 1.346 3 3-1.346 3-3 3-3-1.346-3-3zm11 1c0 1.893-.664 3.633-1.768 5.004-.792-.986-1.796-1.763-2.931-2.278 1.034-.917 1.699-2.239 1.699-3.726 0-2.757-2.243-5-5-5s-5 2.243-5 5c0 1.487.665 2.809 1.699 3.726-1.135.516-2.139 1.293-2.931 2.278-1.104-1.371-1.768-3.111-1.768-5.004 0-4.411 3.589-8 8-8s8 3.589 8 8z"/></svg>