<?xml version="1.0" encoding="UTF-8"?>
<!DOCTYPE svg PUBLIC "-//W3C//DTD SVG 1.1//EN" "http://www.w3.org/Graphics/SVG/1.1/DTD/svg11.dtd">
<!-- Creator: CorelDRAW 2018 (64 Bit Versión de evaluación) -->
<svg xmlns="http://www.w3.org/2000/svg" xml:space="preserve" width="32.461mm" height="7.0274mm" version="1.1" style="shape-rendering:geometricPrecision; text-rendering:geometricPrecision; image-rendering:optimizeQuality; fill-rule:evenodd; clip-rule:evenodd"
viewBox="0 0 416.51 90.17"
 xmlns:xlink="http://www.w3.org/1999/xlink">
 <defs>
  <style type="text/css">
   <![CDATA[
    .fil1 {fill:none}
    .fil2 {fill:white}
    .fil0 {fill:white;fill-rule:nonzero}
   ]]>
  </style>
 </defs>
 <g id="Capa_x0020_1">
  <metadata id="CorelCorpID_0Corel-Layer"/>
  <path class="fil0" d="M134.96 72.47c14.63,0 21.81,-7.83 21.81,-16.98 0,-19.41 -27.92,-13.38 -27.92,-21.46 0,-2.65 2.11,-4.75 7.95,-4.75 4.29,0 8.93,1.35 13.64,4.08l4.29 -11.07c-4.85,-3.01 -11.46,-4.59 -17.86,-4.59 -14.63,0 -21.81,7.67 -21.81,17.09 0,19.58 27.99,13.49 27.99,21.82 0,2.56 -2.25,4.28 -8.02,4.28 -5.7,0 -11.89,-2.09 -16.25,-5.17l-4.57 10.96c4.64,3.46 12.66,5.79 20.75,5.79zm50.92 0c14.56,0 23.14,-8.8 23.14,-24.53l0 -29.19 -13.72 0 0 28.74c0,9.03 -3.52,12.64 -9.28,12.64 -5.84,0 -9.36,-3.61 -9.36,-12.64l0 -28.74 -13.93 0 0 29.19c0,15.73 8.58,24.53 23.14,24.53zm42.27 -1.05l13.93 0 0 -40.86 15.05 0 0 -11.81 -44.1 0 0 11.81 15.12 0 0 40.86zm64.64 0l14.91 0 -10.62 -16.55c6.12,-3.16 9.64,-8.88 9.64,-16.63 0,-12.04 -8.44,-19.49 -21.87,-19.49l-22.51 0 0 52.67 13.93 0 0 -14 7.6 0 8.93 14zm-0.14 -33.18c0,4.82 -2.89,7.67 -8.65,7.67l-7.74 0 0 -15.42 7.74 0c5.77,0 8.65,2.86 8.65,7.75zm58.59 33.18l14.49 0 -21.8 -52.67 -13.72 0 -21.73 52.67 14.21 0 3.87 -10.23 20.82 0 3.87 10.23zm-20.61 -21.22l6.33 -16.86 6.33 16.86 -12.66 0zm72.23 -31.45l0 28.07 -21.73 -28.07 -11.46 0 0 52.67 13.64 0 0 -28.07 21.73 28.07 11.46 0 0 -52.67 -13.64 0z"/>
  <g id="_1363678314784">
   <path class="fil1" d="M68.76 5.54c-63.13,14.95 -13.85,27.02 -14.5,41.49 -0.65,14.47 -19.92,15.92 -50.48,18.09"/>
   <path class="fil1" d="M72.7 7.74c-59,16.67 10.78,21.42 11.43,51.72 1.72,12.63 -9.28,21.5 -20.45,30.72"/>
   <path class="fil2" d="M93.36 46.68c0,-16.23 -8.28,-30.53 -20.85,-38.89 -58.66,16.63 10.97,21.4 11.62,51.66 1.72,12.63 -9.28,21.5 -20.45,30.72 17.37,-6.8 29.68,-23.71 29.68,-43.49z"/>
   <path class="fil2" d="M54.26 47.03c0.64,-14.47 -48.64,-26.54 14.5,-41.49 -6.57,-3.53 -14.09,-5.54 -22.07,-5.54 -25.78,0 -46.68,20.9 -46.68,46.68 0,6.55 1.35,12.78 3.78,18.43 30.56,-2.17 49.84,-3.62 50.48,-18.09z"/>
  </g>
 </g>
</svg>
